<svg xmlns="http://www.w3.org/2000/svg" viewBox="0 0 512 512" width="512" height="512">
  <!-- Dark background -->
  <rect width="512" height="512" rx="112" fill="#050914"/>
  
  <!-- Group everything to ensure perfect visual centering -->
  <g transform="translate(256, 245)">
    
    <!-- Forsa F (Main Hero) — Large, clear, and centered -->
    <!-- Scale 0.75, centered relative to its own bounding box -->
    <g transform="translate(0, -20) scale(0.75) translate(-396.5, -426.5)">
      <polygon points="160,219 633,219 585,303 208,303" fill="#FFC000" />
      <polygon points="238,354 555,354 508,440 381,440 443,550 396.5,634" fill="#FFC000" />
    </g>
    
    <!-- ZoneVast Z (Supporting Identity) — Small, distinct, no overlap -->
    <!-- Scale 0.12, placed at the bottom center -->
    <g transform="translate(0, 165) scale(0.12) translate(-735, -515)">
      <rect width="153.6" height="102.4" transform="matrix(0.776295 0 0 0.678964 624.140778 550.804788)" fill="#FFC000"/>
      <path d="M624.140778,347.490943q191.755416-.826997,190.92842-.826997t-152.167297,177.804178h-38.761123v-176.977181Z" fill="#FFC000" stroke="#FFC000" stroke-width="3.072"/>
      <path d="M853.938018,346.663946L700.943725,524.468125c2.705545,2.840823,127.400008-2.613192,161.164018-.000001s48.066015,16.99144,48.066015,16.99144l-1.653994-193.968621-54.581746-.826997Z" transform="translate(-0.76547 0)" fill="#FFC000" stroke="#FFC000" stroke-width="3.072"/>
      <path d="M1313.289727,489.759319l143.169352-.308555c0,0,0-75.287333-73.744559-75.287333s-69.424793,75.595888-69.424793,75.595888Z" transform="translate(-547.050791 130.571383)" fill="#FFC000" stroke="#FFC000" stroke-width="3.072"/>
    </g>
    
    <!-- Branding text — Clear and professional -->
    <text y="215" font-family="Inter, system-ui, -apple-system, sans-serif" font-size="24" font-weight="900" fill="#FFC000" text-anchor="middle" letter-spacing="6">ZONEVAST</text>
  </g>
</svg>
