<svg id="eA5QkJuP7el1" xmlns="http://www.w3.org/2000/svg" xmlns:xlink="http://www.w3.org/1999/xlink" viewBox="0 0 1536 1024" shape-rendering="geometricPrecision" text-rendering="geometricPrecision" project-id="13ab0254814d4e869c7307b7e6c7bab4" export-id="23b4d4162b164a488ba9ceab56e37713" cached="false"><g transform="matrix(3.595128 0 0 3.741776 -2022.281788 -1297.138762)"><rect width="153.6" height="102.4" rx="0" ry="0" transform="matrix(0.776295 0 0 0.678964 624.140778 550.804788)" fill="#fdcf41" stroke="#fdcf41"/><path d="M624.140778,347.490943q191.755416-.826997,190.92842-.826997t-152.167297,177.804178h-38.761123v-176.977181Z" transform="translate(0 0.000001)" fill="#fdcf41" stroke="#fecf3e" stroke-width="3.072"/><path d="M853.938018,346.663946L700.943725,524.468125c2.705545,2.840823,127.400008-2.613192,161.164018-.000001s48.066015,16.99144,48.066015,16.99144l-1.653994-193.968621-54.581746-.826997Z" transform="translate(-0.76547 0.000001)" fill="#fdcf41" stroke="#fdcf41" stroke-width="3.072"/><path d="M1313.289727,489.759319l143.169352-.308555c0,0,0-75.287333-73.744559-75.287333s-69.424793,75.595888-69.424793,75.595888Z" transform="translate(-547.050791 130.571383)" fill="#fdcf41" stroke="#fdcf41" stroke-width="3.072"/></g></svg>
